<svg xmlns="http://www.w3.org/2000/svg" width="408.113" height="545.848" viewBox="0 0 408.113 545.848">
  <g id="Group_150" data-name="Group 150" transform="translate(-1268.047 -2.239)">
    <g id="p">
      <g id="Group_115" data-name="Group 115" transform="translate(1071 -288.202)">
        <path id="Subtraction_1" data-name="Subtraction 1" d="M57,29H0A29.366,29.366,0,0,1,8.387,8.515a28.439,28.439,0,0,1,9.046-6.228,28.031,28.031,0,0,1,22.161-.008,28.382,28.382,0,0,1,9.059,6.215,28.936,28.936,0,0,1,6.108,9.218A29.256,29.256,0,0,1,57,29Z" transform="translate(209 303)" fill="#cb0c9f"/>
        <path id="Path_21" data-name="Path 21" d="M28.5,0,57,504.289H0Z" transform="translate(266 836.289) rotate(180)" fill="#cb0c9f"/>
      </g>
      <g id="Group_116" data-name="Group 116" transform="translate(1454.947 201.47) rotate(53)">
        <path id="Subtraction_1-2" data-name="Subtraction 1" d="M56.7,0H0A33.446,33.446,0,0,0,2.261,12.041,31.447,31.447,0,0,0,8.343,21.9a28.325,28.325,0,0,0,9,6.658A25.938,25.938,0,0,0,28.351,31a26.107,26.107,0,0,0,11.035-2.436A28.259,28.259,0,0,0,48.4,21.92a31.2,31.2,0,0,0,6.075-9.854A33.31,33.31,0,0,0,56.7,0Z" transform="translate(0.197 152.83)" fill="#cb0c9f"/>
        <path id="Path_21-2" data-name="Path 21" d="M28.5,153.43,57,0H0Z" transform="translate(57 153.43) rotate(180)" fill="#cb0c9f"/>
      </g>
    </g>
    <g id="s">
      <g id="Group_117" data-name="Group 117" transform="translate(1490.278 246.821) rotate(-138)">
        <path id="Subtraction_1-3" data-name="Subtraction 1" d="M57,0H0A29.382,29.382,0,0,0,2.273,11.264a29.164,29.164,0,0,0,6.114,9.221,28.439,28.439,0,0,0,9.046,6.228A27.716,27.716,0,0,0,28.5,29a27.9,27.9,0,0,0,11.093-2.279,28.382,28.382,0,0,0,9.059-6.215,28.936,28.936,0,0,0,6.108-9.218A29.256,29.256,0,0,0,57,0Z" transform="translate(0 248.795)" fill="rgba(23,193,232,0.74)"/>
        <g id="Component_2_6" data-name="Component 2 – 6" transform="translate(4.346 4.465)">
          <path id="Path_21-3" data-name="Path 21" d="M31.667,248.045,56,0H0Z" transform="translate(56 248.045) rotate(-180)" fill="rgba(23,193,232,0.74)"/>
        </g>
      </g>
      <g id="Group_149" data-name="Group 149">
        <g id="Group_118" data-name="Group 118" transform="matrix(-0.602, 0.799, -0.799, -0.602, 1634.9, 311.219)">
          <path id="Subtraction_2" data-name="Subtraction 2" d="M56.7,31H0A33.446,33.446,0,0,1,2.261,18.959,31.447,31.447,0,0,1,8.343,9.1a28.325,28.325,0,0,1,9-6.658,26.111,26.111,0,0,1,22.044-.008A28.259,28.259,0,0,1,48.4,9.08a31.2,31.2,0,0,1,6.075,9.854A33.31,33.31,0,0,1,56.7,31Z" transform="translate(0.197 0)" fill="#17c1e8"/>
          <path id="Path_26" data-name="Path 26" d="M28.365,0,57,152.095H0Z" transform="translate(57 182.495) rotate(180)" fill="#17c1e8"/>
        </g>
        <g id="Group_119" data-name="Group 119" transform="translate(1478.904 617.087) rotate(-150)">
          <path id="Subtraction_3" data-name="Subtraction 3" d="M57,0H0A29.382,29.382,0,0,0,2.273,11.264a29.164,29.164,0,0,0,6.114,9.221,28.439,28.439,0,0,0,9.046,6.228A27.716,27.716,0,0,0,28.5,29a27.9,27.9,0,0,0,11.093-2.279,28.382,28.382,0,0,0,9.059-6.215,28.936,28.936,0,0,0,6.108-9.218A29.256,29.256,0,0,0,57,0Z" transform="translate(21.144 317.225)" fill="#17c1e8"/>
          <path id="Path_28" data-name="Path 28" d="M28.5,248.6,57,0H0Z" transform="translate(78.144 317.225) rotate(180)" fill="#17c1e8"/>
        </g>
      </g>
    </g>
    <g id="m">
      <g id="Group_120" data-name="Group 120" transform="translate(909.983 -44.945) rotate(-42)">
        <path id="Subtraction_1-4" data-name="Subtraction 1" d="M57,29H0A29.366,29.366,0,0,1,8.387,8.515a28.439,28.439,0,0,1,9.046-6.228,28.031,28.031,0,0,1,22.161-.008,28.382,28.382,0,0,1,9.059,6.215,28.936,28.936,0,0,1,6.108,9.218A29.256,29.256,0,0,1,57,29Z" transform="translate(209 303)" fill="#252f40"/>
        <path id="Path_21-4" data-name="Path 21" d="M28.5,0,57,244.247H0Z" transform="translate(266 576.247) rotate(180)" fill="#252f40"/>
      </g>
      <g id="Group_121" data-name="Group 121" transform="translate(-181 -283.321)">
        <g id="Group_105" data-name="Group 105" transform="translate(1788.206 292.119)">
          <path id="Subtraction_1-5" data-name="Subtraction 1" d="M57,0H0A29.384,29.384,0,0,0,2.273,11.265a29.165,29.165,0,0,0,6.114,9.221,28.439,28.439,0,0,0,9.046,6.228A27.715,27.715,0,0,0,28.5,29a27.9,27.9,0,0,0,11.093-2.279,28.382,28.382,0,0,0,9.059-6.215,28.937,28.937,0,0,0,6.108-9.218A29.257,29.257,0,0,0,57,0Z" transform="translate(57 29.001) rotate(180)" fill="#252f40"/>
          <path id="Path_21-5" data-name="Path 21" d="M28.5,510.289,57,0H0Z" transform="translate(0 29.001)" fill="#252f40"/>
        </g>
      </g>
    </g>
  </g>
</svg>
